<svg id="Layer_1" data-name="Layer 1" xmlns="http://www.w3.org/2000/svg" viewBox="0 0 37 37"><defs><style>.cls-1{fill:#203864;}.cls-2{fill:#fff;}</style></defs><rect class="cls-1" width="37" height="37" rx="6.23"/><path class="cls-2" d="M25.07,8.82a2.1,2.1,0,0,1,1.45.56c.36.35.74.7,1.07,1.08a2.06,2.06,0,0,1,0,2.9c-.24.26-.51.49-.75.75s-.18.1-.29,0l-3.63-3.63c-.07-.07-.17-.15-.07-.25A6.62,6.62,0,0,1,24.17,9,2.16,2.16,0,0,1,25.07,8.82Z"/><path class="cls-2" d="M26.25,14.31c-1.17-1.16-2.34-2.32-3.5-3.5-.19-.19-.29-.21-.5,0q-5.84,5.86-11.69,11.7a1.14,1.14,0,0,1-.15.16.18.18,0,0,0-.07.09h0L8.83,28.18l5.41-1.5h0l.17-.15L26.26,14.7C26.41,14.54,26.4,14.46,26.25,14.31Z"/></svg>